<svg width="820" height="159" viewBox="0 0 820 159" fill="none" xmlns="http://www.w3.org/2000/svg">
<g clip-path="url(#clip0_2294_1755)">
<path d="M64.4298 24.6805C54.7798 24.6805 51.9898 28.9605 51.9898 38.4005V54.0605H77.7298L75.1498 79.3605H51.9998V156.14H21.1098V79.3605H0.299805V54.0605H21.1098V38.8305C21.1098 13.3105 31.3998 -0.16952 60.1098 -0.16952C66.1261 -0.183631 72.1375 0.173715 78.1098 0.90048V24.7105L64.4298 24.6805Z" fill="#1877F2"/>
<path d="M79.8701 101.88C79.8701 73.3599 93.3801 51.8799 121.69 51.8799C137.13 51.8799 146.56 59.8199 151.07 69.6799V54.0599H180.66V156.14H151.07V140.7C146.78 150.57 137.13 158.29 121.69 158.29C93.3801 158.29 79.8701 136.84 79.8701 108.29V101.88ZM110.75 108.75C110.75 123.97 116.32 134.05 130.69 134.05C143.35 134.05 149.78 124.83 149.78 110.25V99.9999C149.78 85.4199 143.35 76.1999 130.69 76.1999C116.32 76.1999 110.75 86.2799 110.75 101.5V108.75Z" fill="#1877F2"/>
<path d="M245 51.9102C257 51.9102 268.37 54.4902 274.59 58.7702L267.73 80.6501C261.296 77.5862 254.267 75.9748 247.14 75.9301C230.41 75.9301 223.14 85.5802 223.14 102.1V108.1C223.14 124.62 230.43 134.27 247.14 134.27C254.267 134.225 261.296 132.614 267.73 129.55L274.59 151.42C268.37 155.71 257.01 158.29 245 158.29C208.75 158.29 192.24 138.77 192.24 107.46V102.74C192.24 71.4302 208.75 51.9102 245 51.9102Z" fill="#1877F2"/>
<path d="M278.66 109V100C278.66 71.05 295.17 52 328.85 52C360.59 52 374.53 71.3 374.53 99.61V115.91H309.53C310.18 129.85 316.4 136.07 333.53 136.07C345.12 136.07 357.34 133.71 366.35 129.85L372 151C363.85 155.3 347.12 158.51 332.33 158.51C293.24 158.5 278.66 139 278.66 109ZM309.54 95.7H346.86V93.13C346.86 81.98 342.36 73.13 328.86 73.13C314.91 73.14 309.54 81.94 309.54 95.66V95.7Z" fill="#1877F2"/>
<path d="M489 108.32C489 136.84 475.28 158.32 447 158.32C431.56 158.32 420.84 150.6 416.55 140.73V156.17H387.39V2.8L418.27 0V68.2C422.77 59.2 432.64 51.9 447.01 51.9C475.32 51.9 489.01 73.35 489.01 101.9L489 108.32ZM458.12 101.24C458.12 86.87 452.55 76.15 437.75 76.15C425.09 76.15 418.23 85.15 418.23 99.74V110.46C418.23 125.04 425.09 134.05 437.75 134.05C452.55 134.05 458.12 123.33 458.12 108.96V101.24Z" fill="#1877F2"/>
<path d="M499.33 107.67V102.53C499.33 73.1402 516.06 51.9102 550.16 51.9102C584.26 51.9102 601 73.1402 601 102.53V107.67C601 137.05 584.27 158.29 550.17 158.29C516.07 158.29 499.33 137.05 499.33 107.67ZM570.11 100.38C570.11 86.8702 564.53 76.1501 550.11 76.1501C535.69 76.1501 530.16 86.8702 530.16 100.38V109.82C530.16 123.33 535.74 134.05 550.11 134.05C564.48 134.05 570.11 123.33 570.11 109.82V100.38Z" fill="#1877F2"/>
<path d="M611.27 107.67V102.53C611.27 73.1402 627.999 51.9102 662.099 51.9102C696.199 51.9102 712.93 73.1402 712.93 102.53V107.67C712.93 137.05 696.199 158.29 662.099 158.29C627.999 158.29 611.27 137.05 611.27 107.67ZM682.049 100.38C682.049 86.8702 676.469 76.1501 662.099 76.1501C647.729 76.1501 642.159 86.8702 642.159 100.38V109.82C642.159 123.33 647.729 134.05 662.099 134.05C676.469 134.05 682.049 123.33 682.049 109.82V100.38Z" fill="#1877F2"/>
<path d="M755.39 102.74L785.84 54.06H818.65L786.7 104.46L819.94 156.14H787.13L755.39 106.14V156.14H724.5V2.8L755.39 0V102.74Z" fill="#1877F2"/>
</g>
<defs>
<clipPath id="clip0_2294_1755">
<rect width="820" height="159" fill="white"/>
</clipPath>
</defs>
</svg>
